<svg width="512" height="512" xmlns="http://www.w3.org/2000/svg">

 <g>
  <title>background</title>
  <rect fill="none" id="canvas_background" height="402" width="582" y="-1" x="-1"/>
 </g>
 <g>
  <title>Layer 1</title>
  <g id="svg_1">
   <path id="svg_2" stroke-width="15" stroke-miterlimit="10" stroke-linejoin="round" stroke-linecap="round" stroke-opacity="0.8" stroke="#FFFFFF" fill="none" d="m160.100006,421c-26.899994,0 -48.799995,-21.799988 -48.799995,-48.799988l0,-296.900009c0,-26.900002 21.799995,-48.800003 48.799995,-48.800003l12.600006,0c26.899994,0 48.800003,21.799999 48.800003,48.800003l0,296.900009c0,26.899994 -21.800003,48.799988 -48.800003,48.799988l-12.600006,0z"/>
   <path id="svg_3" stroke-width="15" stroke-miterlimit="10" stroke-linejoin="round" stroke-linecap="round" stroke-opacity="0.8" stroke="#FFFFFF" fill="none" d="m430.600006,85.800003l-179.200012,0c-4.300003,0 -7.699997,3.5 -7.699997,7.699997l0,280.200012c0,38.399994 -31.100006,69.5 -69.5,69.5l-15.5,0c-38.400009,0 -69.500008,-31.100006 -69.500008,-69.5l0,-280.200012c0,-4.300003 -3.5,-7.699997 -7.699997,-7.699997c-36.099991,0 -65.400002,29.299995 -65.400002,65.399994l0,268.800003c0,36.100006 29.299999,65.399994 65.400002,65.399994l349.20002,0c36.099976,0 65.399994,-29.299988 65.399994,-65.399994l0,-268.800003c-0.100006,-36.099998 -29.399994,-65.399994 -65.5,-65.399994zm-109.200012,244.099991c0,4.299988 -3.5,7.699982 -7.700012,7.699982l-24.699982,0c-4.299988,0 -7.700012,-3.5 -7.700012,-7.699982l0,-24.700012c0,-4.299988 3.5,-7.699982 7.700012,-7.699982l24.700012,0c4.299988,0 7.699982,3.5 7.699982,7.699982l0,24.700012zm0,-61.299988c0,4.300018 -3.5,7.700012 -7.700012,7.700012l-24.699982,0c-4.299988,0 -7.700012,-3.5 -7.700012,-7.700012l0,-24.699997c0,-4.300003 3.5,-7.699997 7.700012,-7.699997l24.700012,0c4.299988,0 7.699982,3.5 7.699982,7.699997l0,24.699997zm0,-61.300003c0,4.300003 -3.5,7.699997 -7.700012,7.699997l-24.699982,0c-4.299988,0 -7.700012,-3.5 -7.700012,-7.699997l0,-24.699997c0,-4.300003 3.5,-7.700012 7.700012,-7.700012l24.700012,0c4.299988,0 7.699982,3.5 7.699982,7.700012l0,24.699997zm67,122.599991c0,4.299988 -3.5,7.699982 -7.700012,7.699982l-24.699982,0c-4.300018,0 -7.700012,-3.5 -7.700012,-7.699982l0,-24.700012c0,-4.299988 3.5,-7.699982 7.700012,-7.699982l24.699982,0c4.300018,0 7.700012,3.5 7.700012,7.699982l0,24.700012zm0,-61.299988c0,4.300018 -3.5,7.700012 -7.700012,7.700012l-24.699982,0c-4.300018,0 -7.700012,-3.5 -7.700012,-7.700012l0,-24.699997c0,-4.300003 3.5,-7.699997 7.700012,-7.699997l24.699982,0c4.300018,0 7.700012,3.5 7.700012,7.699997l0,24.699997zm0,-61.300003c0,4.300003 -3.5,7.699997 -7.700012,7.699997l-24.699982,0c-4.300018,0 -7.700012,-3.5 -7.700012,-7.699997l0,-24.699997c0,-4.300003 3.5,-7.700012 7.700012,-7.700012l24.699982,0c4.300018,0 7.700012,3.5 7.700012,7.700012l0,24.699997zm66.899994,122.599991c0,4.299988 -3.5,7.699982 -7.700012,7.699982l-24.699982,0c-4.300018,0 -7.700012,-3.5 -7.700012,-7.699982l0,-24.700012c0,-4.299988 3.5,-7.699982 7.700012,-7.699982l24.699982,0c4.300018,0 7.700012,3.5 7.700012,7.699982l0,24.700012zm0,-61.299988c0,4.300018 -3.5,7.700012 -7.700012,7.700012l-24.699982,0c-4.300018,0 -7.700012,-3.5 -7.700012,-7.700012l0,-24.699997c0,-4.300003 3.5,-7.699997 7.700012,-7.699997l24.699982,0c4.300018,0 7.700012,3.5 7.700012,7.699997l0,24.699997zm0,-61.300003c0,4.300003 -3.5,7.699997 -7.700012,7.699997l-24.699982,0c-4.300018,0 -7.700012,-3.5 -7.700012,-7.699997l0,-24.699997c0,-4.300003 3.5,-7.700012 7.700012,-7.700012l24.699982,0c4.300018,0 7.700012,3.5 7.700012,7.700012l0,24.699997z"/>
  </g>
 </g>
</svg>