<?xml version="1.0" ?><!DOCTYPE svg  PUBLIC '-//W3C//DTD SVG 1.1//EN'  'http://www.w3.org/Graphics/SVG/1.1/DTD/svg11.dtd'><svg enable-background="new 0 0 512 512" id="Layer_1" version="1.1" viewBox="0 0 512 512" xml:space="preserve" xmlns="http://www.w3.org/2000/svg" xmlns:xlink="http://www.w3.org/1999/xlink"><g><path d="   M160.1,421c-26.9,0-48.8-21.8-48.8-48.8V75.3c0-26.9,21.8-48.8,48.8-48.8h12.6c26.9,0,48.8,21.8,48.8,48.8v296.9   c0,26.9-21.8,48.8-48.8,48.8H160.1z" fill="none" stroke="#FFFFFF" stroke-opacity="0.8" stroke-linecap="round" stroke-linejoin="round" stroke-miterlimit="10" stroke-width="10"/><path d="   M430.6,85.8H251.4c-4.3,0-7.7,3.5-7.7,7.7v280.2c0,38.4-31.1,69.5-69.5,69.5h-15.5c-38.4,0-69.5-31.1-69.5-69.5V93.5   c0-4.3-3.5-7.7-7.7-7.7c-36.1,0-65.4,29.3-65.4,65.4V420c0,36.1,29.3,65.4,65.4,65.4h349.2c36.1,0,65.4-29.3,65.4-65.4V151.2   C496,115.1,466.7,85.8,430.6,85.8z M321.4,329.9c0,4.3-3.5,7.7-7.7,7.7H289c-4.3,0-7.7-3.5-7.7-7.7v-24.7c0-4.3,3.5-7.7,7.7-7.7   h24.7c4.3,0,7.7,3.5,7.7,7.7V329.9z M321.4,268.6c0,4.3-3.5,7.7-7.7,7.7H289c-4.3,0-7.7-3.5-7.7-7.7v-24.7c0-4.3,3.5-7.7,7.7-7.7   h24.7c4.3,0,7.7,3.5,7.7,7.7V268.6z M321.4,207.3c0,4.3-3.5,7.7-7.7,7.7H289c-4.3,0-7.7-3.5-7.7-7.7v-24.7c0-4.3,3.5-7.7,7.7-7.7   h24.7c4.3,0,7.7,3.5,7.7,7.7V207.3z M388.4,329.9c0,4.3-3.5,7.7-7.7,7.7h-24.7c-4.3,0-7.7-3.5-7.7-7.7v-24.7c0-4.3,3.5-7.7,7.7-7.7   h24.7c4.3,0,7.7,3.5,7.7,7.7V329.9z M388.4,268.6c0,4.3-3.5,7.7-7.7,7.7h-24.7c-4.3,0-7.7-3.5-7.7-7.7v-24.7c0-4.3,3.5-7.7,7.7-7.7   h24.7c4.3,0,7.7,3.5,7.7,7.7V268.6z M388.4,207.3c0,4.3-3.5,7.7-7.7,7.7h-24.7c-4.3,0-7.7-3.5-7.7-7.7v-24.7c0-4.3,3.5-7.7,7.7-7.7   h24.7c4.3,0,7.7,3.5,7.7,7.7V207.3z M455.3,329.9c0,4.3-3.5,7.7-7.7,7.7h-24.7c-4.3,0-7.7-3.5-7.7-7.7v-24.7c0-4.3,3.5-7.7,7.7-7.7   h24.7c4.3,0,7.7,3.5,7.7,7.7V329.9z M455.3,268.6c0,4.3-3.5,7.7-7.7,7.7h-24.7c-4.3,0-7.7-3.5-7.7-7.7v-24.7c0-4.3,3.5-7.7,7.7-7.7   h24.7c4.3,0,7.7,3.5,7.7,7.7V268.6z M455.3,207.3c0,4.3-3.5,7.7-7.7,7.7h-24.7c-4.3,0-7.7-3.5-7.7-7.7v-24.7c0-4.3,3.5-7.7,7.7-7.7   h24.7c4.3,0,7.7,3.5,7.7,7.7V207.3z" fill="none" stroke="#FFFFFF" stroke-opacity="0.8" stroke-linecap="round" stroke-linejoin="round" stroke-miterlimit="10" stroke-width="10"/></g></svg>