<?xml version="1.0" ?><svg height="16px" id="SVGRoot" version="1.1" viewBox="0 0 16 16" width="16px" xmlns="http://www.w3.org/2000/svg" xmlns:cc="http://creativecommons.org/ns#" xmlns:dc="http://purl.org/dc/elements/1.1/" xmlns:inkscape="http://www.inkscape.org/namespaces/inkscape" xmlns:rdf="http://www.w3.org/1999/02/22-rdf-syntax-ns#" xmlns:sodipodi="http://sodipodi.sourceforge.net/DTD/sodipodi-0.dtd" xmlns:svg="http://www.w3.org/2000/svg"><defs id="defs10"/><g id="layer1"><path d="m 5.5481831,1.375 c -0.5698313,0 -1.0285763,0.5156875 -1.0285763,1.15625 v 11.037109 c 0,0.640563 0.458745,1.15625 1.0285763,1.15625 h 5.4857409 c 0.569831,0 1.028576,-0.515687 1.028576,-1.15625 V 2.53125 C 12.0625,1.8906875 11.603755,1.375 11.033924,1.375 Z m 0.2696442,0.4707031 h 4.9464517 c 0.513712,0 0.926791,0.4635388 0.926791,1.0410157 v 9.9492192 c 0,0.577475 -0.413079,1.042968 -0.926791,1.042968 H 5.8178273 c -0.5137115,0 -0.9267902,-0.465493 -0.9267902,-1.042968 V 2.8867188 c 0,-0.5774768 0.4130787,-1.0410157 0.9267902,-1.0410157 z M 8.2910534,13.966797 a 0.32325035,0.35355338 0 0 1 0.3232158,0.353515 0.32325035,0.35355338 0 0 1 -0.3232158,0.353516 0.32325035,0.35355338 0 0 1 -0.3232158,-0.353516 0.32325035,0.35355338 0 0 1 0.3232158,-0.353515 z" id="rect26" style="fill:#000000;stroke:none;stroke-width:0.95618516"/></g></svg>