<?xml version="1.0" encoding="utf-8"?>
<!-- Svg Vector Icons : http://www.onlinewebfonts.com/icon -->
<!DOCTYPE svg PUBLIC "-//W3C//DTD SVG 1.1//EN" "http://www.w3.org/Graphics/SVG/1.1/DTD/svg11.dtd">
<svg version="1.1" xmlns="http://www.w3.org/2000/svg" xmlns:xlink="http://www.w3.org/1999/xlink" x="0px" y="0px" viewBox="0 0 1000 1000" enable-background="new 0 0 1000 1000" xml:space="preserve">
<metadata> Svg Vector Icons : http://www.onlinewebfonts.com/icon </metadata>
<g><g transform="translate(0.000000,511.000000) scale(0.100000,-0.100000)"><path d="M1952,2270.8c-142.6-28.5-279.1-105.9-395.3-224.1c-112.1-110-122.2-130.4-784.4-1619.8L100-1080.8v-203.7c0-189.5,4.1-213.9,67.2-340.3c108-222.1,315.8-379,558.3-423.8c140.6-26.5,8408.4-26.5,8549,0c242.5,44.8,450.3,201.7,558.3,423.8c63.1,126.3,67.2,150.8,67.2,340.3v203.7L9227.6,426.9c-662.2,1489.4-672.3,1509.7-784.4,1619.8c-122.2,124.3-252.6,195.6-411.6,224.1C7905.4,2295.3,2074.3,2293.2,1952,2270.8z M8048,1810.3c38.7-18.3,87.6-55,108-81.5c65.2-83.5,1310.1-2905.4,1320.2-2993c10.2-97.8-57-240.4-142.6-303.6l-57.1-42.8H5000H723.5l-57.1,42.8c-85.6,63.2-152.8,205.8-142.6,303.6c10.2,85.6,1255.1,2909.4,1320.3,2993c95.8,120.2-108,114.1,3151.9,114.1C7709.8,1842.9,7984.8,1840.9,8048,1810.3z"/><path d="M1978.5,973c-8.2-6.1-14.3-85.6-14.3-173.2V640.9h275h275.1l4.1-696.8l6.1-698.8h183.4h183.4l6.1,696.8l4.1,696.8l271,6.1l268.9,6.1v163v163l-725.3,6.1C2318.7,985.2,1986.7,981.1,1978.5,973z"/><path d="M4107.6,962.8C4075,920,3414.9-740.5,3427.1-752.7c22.4-24.5,346.4-12.2,366.7,14.2c12.2,12.2,44.8,85.6,75.4,163l55,136.5h360.6h358.6l61.1-158.9l63.2-156.9l187.4-6.1c136.5-4.1,187.4,2,187.4,18.3c0,42.8-658.1,1699.2-680.5,1713.5C4423.4,997.4,4130,989.3,4107.6,962.8z M4407.1,178.4c57.1-148.7,103.9-275,103.9-281.2c0-6.1-103.9-10.2-232.3-10.2h-232.3l116.1,295.4c63.2,161,120.2,287.3,128.4,279.1C4297.1,453.4,4350.1,327.1,4407.1,178.4z"/><path d="M5326,962.8c0-12.2,120.2-199.7,264.9-415.6c146.7-216,264.9-399.3,264.9-409.5s-128.4-205.8-285.2-434c-156.9-230.2-285.2-427.9-285.2-442.1c0-20.4,53-26.5,201.7-26.5h201.7l197.6,277.1c108,150.8,201.7,271,207.8,264.9c6.1-4.1,93.7-126.3,195.6-271l187.4-260.8l209.9-6.1c144.7-4.1,207.8,2,207.8,18.3c0,12.2-132.4,216-293.4,452.3L6306,139.7L6581,541c150.8,222.1,273,411.6,273,423.8c0,14.3-71.3,22.4-201.7,22.4h-203.8l-175.2-244.5c-95.8-134.5-181.3-244.5-189.5-244.5c-8.1,2-89.6,112.1-183.4,244.5l-169.1,244.5h-203.8C5385.1,987.2,5326,981.1,5326,962.8z"/><path d="M7210.6,962.8c-6.1-14.3-8.2-407.5-6.1-872l6.1-845.5l189.5-6.1l187.4-6.1l-4.1,872l-6.1,872l-179.3,6.1C7267.6,987.2,7216.7,981.1,7210.6,962.8z"/></g></g>
</svg>